<svg width="94" height="94" viewBox="0 0 94 94" fill="none" xmlns="http://www.w3.org/2000/svg">
<circle cx="47" cy="47" r="47" fill="white"/>
<circle cx="47" cy="47" r="46.5" stroke="black" stroke-opacity="0.588235" stroke-dasharray="2 2"/>
<path d="M63.7616 36.3356L46.5 49.3311L29.2384 36.3356M27.2017 32.0338C26.6178 32.0338 26.0578 32.2711 25.6449 32.6935C25.232 33.1158 25 33.6887 25 34.286V59.7477C25 60.3451 25.232 60.918 25.6449 61.3403C26.0578 61.7627 26.6178 62 27.2017 62H65.7983C66.3822 62 66.9422 61.7627 67.3551 61.3403C67.768 60.918 68 60.3451 68 59.7477V34.2523C68 33.6549 67.768 33.082 67.3551 32.6597C66.9422 32.2373 66.3822 32 65.7983 32H27.2017V32.0338Z" stroke="black" stroke-linecap="round" stroke-linejoin="round"/>
</svg>
