<svg width="94" height="94" viewBox="0 0 94 94" fill="none" xmlns="http://www.w3.org/2000/svg">
<circle cx="47" cy="47" r="47" fill="white"/>
<circle cx="47" cy="47" r="46.5" stroke="black" stroke-opacity="0.588235" stroke-dasharray="2 2"/>
<g clip-path="url(#clip0_1_13)">
<path d="M47.2675 66.8676L60.9849 29.1676C60.9997 29.1421 61.0038 29.1117 60.9964 29.0831C60.9889 29.0545 60.9705 29.0301 60.9452 29.0152C60.9198 29.0003 60.8897 28.9961 60.8613 29.0037C60.833 29.0112 60.8088 29.0298 60.794 29.0553L24.0498 49.1085C24.0315 49.1197 24.0171 49.1363 24.0086 49.1561C24 49.1758 23.9978 49.1978 24.0022 49.2189C24.0065 49.24 24.0173 49.2593 24.0329 49.274C24.0486 49.2887 24.0684 49.2981 24.0896 49.301L42.3901 51.4507C42.4108 51.4503 42.4309 51.4574 42.447 51.4706C42.463 51.4838 42.4738 51.5024 42.4776 51.5229L47.0129 66.8756C47.014 66.9096 47.0284 66.9419 47.053 66.9652C47.0777 66.9885 47.1105 67.001 47.1442 66.9999C47.178 66.9989 47.2099 66.9843 47.2331 66.9595C47.2562 66.9347 47.2686 66.9016 47.2675 66.8676Z" stroke="black"/>
</g>
<defs>
<clipPath id="clip0_1_13">
<rect width="40" height="40" fill="white" transform="translate(25 26)"/>
</clipPath>
</defs>
</svg>
