<svg width="94" height="94" viewBox="0 0 94 94" fill="none" xmlns="http://www.w3.org/2000/svg">
<circle cx="47" cy="47" r="47" fill="white"/>
<circle cx="47" cy="47" r="46.5" stroke="black" stroke-opacity="0.588235" stroke-dasharray="2 2"/>
<path d="M29.2147 35.8948C27.8887 42.4009 32.887 50.1456 39.1643 56.5794C45.4418 63.0133 52.9979 68.1362 59.3458 66.7771C64.5664 65.6594 67.2315 62.8092 68.7315 60.3807C69.249 59.5425 68.9877 58.4548 68.212 57.8618L60.8665 52.246C60.0744 51.6406 58.9686 51.7225 58.27 52.4387L54.371 56.4348C54.371 56.4348 50.5812 55.1721 45.5592 50.0251C40.5374 44.8781 39.3055 40.9937 39.3055 40.9937L43.2044 36.9975C43.9032 36.2814 43.9832 35.1482 43.3924 34.3363L37.9132 26.8076C37.3346 26.0126 36.2733 25.7448 35.4556 26.2753C33.086 27.8126 30.3052 30.5442 29.2147 35.8948Z" stroke="black" stroke-linecap="round" stroke-linejoin="round"/>
</svg>
